<svg width="120" height="40" viewBox="0 0 120 40" fill="none" xmlns="http://www.w3.org/2000/svg">
<path d="M52.9238 29.8763C52.476 29.1106 51.8622 28.5271 51.0824 28.1273C50.3025 27.7275 49.4245 27.5276 48.4482 27.5276C47.5795 27.5276 46.7869 27.7205 46.0678 28.1075C45.4821 28.4219 44.9887 28.8335 44.583 29.3373V28.2805C44.583 28.0911 44.5292 27.9414 44.4205 27.8327C44.3117 27.724 44.1621 27.6702 43.9727 27.6702C43.7962 27.6702 43.65 27.7251 43.5354 27.8327C43.4197 27.9414 43.3624 28.0911 43.3624 28.2805V38.1874C43.3624 38.3639 43.4197 38.51 43.5354 38.6246C43.65 38.7404 43.7962 38.7976 43.9727 38.7976C44.1621 38.7976 44.3117 38.7404 44.4205 38.6246C44.5292 38.51 44.583 38.3639 44.583 38.1874V31.9631C44.583 31.3529 44.7525 30.8034 45.0916 30.3159C45.4306 29.8272 45.8913 29.4449 46.4747 29.1667C47.0581 28.8884 47.7152 28.7493 48.4482 28.7493C49.1813 28.7493 49.8618 28.8954 50.4522 29.1865C51.0426 29.4788 51.5103 29.916 51.8564 30.4982C52.2024 31.0816 52.3755 31.8205 52.3755 32.716V38.1885C52.3755 38.3651 52.4328 38.5112 52.5485 38.6258C52.6631 38.7415 52.8092 38.7988 52.9858 38.7988C53.1623 38.7988 53.3073 38.7415 53.423 38.6258C53.5376 38.5112 53.5961 38.3651 53.5961 38.1885V32.716C53.5961 31.5902 53.3728 30.6444 52.925 29.8786L52.9238 29.8763Z" fill="white"/>
<path d="M65.1655 30.1682C64.7307 29.3455 64.1259 28.6996 63.35 28.2308C62.5753 27.762 61.6845 27.5276 60.6789 27.5276C59.6732 27.5276 58.7544 27.7725 57.9667 28.2613C57.1779 28.7512 56.5591 29.4204 56.1114 30.2702C55.6625 31.1199 55.4386 32.1021 55.4386 33.2168C55.4386 34.3314 55.6765 35.2971 56.1524 36.1539C56.6282 37.0107 57.2846 37.68 58.1203 38.1628C58.956 38.6457 59.9112 38.8872 60.986 38.8872C61.6247 38.8872 62.294 38.7582 62.9948 38.4992C63.6946 38.2414 64.2618 37.9144 64.6979 37.5206C64.8338 37.3987 64.8983 37.2627 64.8913 37.1127C64.8842 36.9638 64.8057 36.8267 64.6568 36.7048C64.5478 36.6099 64.4154 36.5653 64.2595 36.5723C64.1036 36.5794 63.97 36.6368 63.8622 36.7458C63.5492 37.0447 63.1249 37.2861 62.587 37.4702C62.0502 37.6542 61.5169 37.7456 60.986 37.7456C60.1432 37.7456 59.3955 37.5522 58.7426 37.1642C58.0898 36.7763 57.58 36.243 57.2131 35.5632C56.8978 34.9795 56.7185 34.3197 56.674 33.5848H65.2276C65.4046 33.5848 65.5464 33.5332 65.6554 33.4324C65.7644 33.3304 65.8183 33.191 65.8183 33.014C65.8183 31.9404 65.6003 30.9922 65.1655 30.1694V30.1682ZM57.1815 30.8515C57.5284 30.1717 58.0042 29.6385 58.609 29.2505C59.2138 28.8626 59.9041 28.6692 60.6789 28.6692C61.4946 28.6692 62.2049 28.8626 62.8097 29.2505C63.4145 29.6385 63.8809 30.1717 64.2068 30.8515C64.447 31.3532 64.5912 31.9111 64.6392 32.5241H56.6986C56.7665 31.9087 56.926 31.3508 57.1803 30.8515H57.1815Z" fill="white"/>
<path d="M88.9533 27.9386C88.8647 27.7497 88.7002 27.6541 88.4565 27.6541C88.1859 27.6541 87.9958 27.7754 87.8885 28.0191L85.0717 36.5089L82.409 28.1416C82.3553 27.9935 82.2772 27.8745 82.1757 27.787C82.0742 27.6996 81.9494 27.6552 81.8001 27.6552C81.6508 27.6552 81.5225 27.6996 81.4141 27.787C81.3056 27.8757 81.231 27.9935 81.1913 28.1416L78.5589 36.6594L75.692 28.0203C75.6383 27.899 75.5567 27.8068 75.4482 27.7462C75.3398 27.6855 75.2313 27.6552 75.124 27.6552C74.921 27.6552 74.7788 27.7264 74.6983 27.8687C74.6166 28.011 74.6038 28.2302 74.6574 28.5288L77.9454 38.3716C77.9862 38.4929 78.0573 38.5885 78.1588 38.6562C78.2603 38.7238 78.3781 38.7577 78.5146 38.7577C78.6359 38.7577 78.7478 38.7273 78.8493 38.6667C78.9508 38.606 79.0289 38.5081 79.0825 38.3728L81.7535 29.7791L84.5212 38.3728C84.5481 38.4941 84.6157 38.5897 84.7242 38.6574C84.8326 38.725 84.9539 38.7588 85.0892 38.7588C85.2385 38.7588 85.3633 38.725 85.4648 38.6574C85.5663 38.5897 85.6374 38.4952 85.6782 38.3728L88.9452 28.53C89.0396 28.327 89.0432 28.1311 88.9557 27.941L88.9533 27.9386Z" fill="white"/>
<path d="M95.2875 38.8872C94.2036 38.8872 93.2319 38.6396 92.3711 38.1455C91.5103 37.6515 90.8329 36.974 90.3388 36.1133C89.8436 35.2525 89.5972 34.2877 89.5972 33.2179C89.5972 32.148 89.8448 31.1623 90.3388 30.3015C90.8329 29.4419 91.5103 28.7645 92.3711 28.2693C93.2307 27.7752 94.2036 27.5276 95.2875 27.5276C96.3713 27.5276 97.3396 27.7752 98.1933 28.2693C99.0471 28.7645 99.721 29.4419 100.215 30.3015C100.709 31.1623 100.957 32.134 100.957 33.2179C100.957 34.3017 100.709 35.2536 100.215 36.1133C99.7199 36.974 99.0459 37.6515 98.1933 38.1455C97.3396 38.6407 96.3713 38.8872 95.2875 38.8872ZM95.2875 37.7496C96.1412 37.7496 96.9028 37.5499 97.5743 37.1504C98.2447 36.751 98.7738 36.209 99.1592 35.5246C99.5458 34.8402 99.7385 34.0647 99.7385 33.198C99.7385 32.3314 99.5458 31.5757 99.1592 30.8913C98.7726 30.2069 98.2447 29.665 97.5743 29.2655C96.9039 28.8661 96.1412 28.6663 95.2875 28.6663C94.4337 28.6663 93.6885 28.8661 93.0111 29.2655C92.3337 29.665 91.7988 30.2069 91.4052 30.8913C91.0116 31.5757 90.8153 32.3513 90.8153 33.2179C90.8153 34.0845 91.0116 34.8402 91.4052 35.5246C91.7976 36.209 92.3325 36.751 93.0111 37.1504C93.6885 37.5499 94.4465 37.7496 95.2875 37.7496Z" fill="white"/>
<path d="M108.684 27.8372C108.4 27.7159 108.001 27.6541 107.486 27.6541C106.728 27.6541 106.039 27.8442 105.416 28.2221C104.846 28.5696 104.372 29.0408 103.995 29.6322V28.3842C103.995 28.1952 103.942 28.046 103.833 27.9375C103.725 27.829 103.576 27.7754 103.387 27.7754C103.211 27.7754 103.065 27.8302 102.95 27.9375C102.835 28.046 102.778 28.1952 102.778 28.3842V38.2678C102.778 38.4439 102.835 38.5897 102.95 38.704C103.065 38.8195 103.211 38.8766 103.387 38.8766C103.576 38.8766 103.725 38.8195 103.833 38.704C103.942 38.5897 103.995 38.4439 103.995 38.2678V32.0978C103.995 31.4622 104.145 30.8977 104.442 30.4031C104.74 29.9098 105.152 29.5202 105.68 29.2368C106.207 28.9534 106.809 28.8111 107.486 28.8111C107.743 28.8111 107.976 28.8286 108.186 28.8624C108.396 28.8962 108.575 28.8927 108.724 28.8519C108.873 28.8111 108.968 28.6898 109.008 28.4868C109.076 28.1754 108.968 27.9596 108.684 27.8372V27.8372Z" fill="white"/>
<path d="M119.192 37.8149L114.76 32.3914L119.071 28.4794C119.206 28.371 119.273 28.2497 119.273 28.1144C119.273 27.9791 119.213 27.8438 119.09 27.7085C118.969 27.5732 118.843 27.5056 118.715 27.5056C118.587 27.5056 118.455 27.5592 118.319 27.6677L112.028 33.3921V23.4665C112.028 23.2775 111.975 23.1282 111.866 23.0198C111.758 22.9113 111.608 22.8577 111.419 22.8577C111.243 22.8577 111.097 22.9113 110.983 23.0198C110.868 23.1282 110.81 23.2775 110.81 23.4665V38.0983C110.81 38.2744 110.868 38.4202 110.983 38.5345C111.097 38.65 111.243 38.7071 111.419 38.7071C111.608 38.7071 111.758 38.65 111.866 38.5345C111.975 38.4202 112.028 38.2744 112.028 38.0983V34.8687L113.925 33.1472L118.319 38.524C118.428 38.6593 118.553 38.7375 118.695 38.7573C118.837 38.7771 118.976 38.727 119.111 38.6045C119.261 38.4832 119.338 38.3537 119.345 38.2184C119.352 38.0831 119.3 37.9478 119.193 37.8125L119.192 37.8149Z" fill="white"/>
<path d="M73.1593 28.2198C73.0578 28.1184 72.9258 28.067 72.7636 28.067H70.0719V24.8549C70.0719 24.666 70.0181 24.5167 69.9096 24.4082C69.801 24.2997 69.6516 24.2461 69.4625 24.2461C69.2862 24.2461 69.1403 24.2997 69.0259 24.4082C68.9104 24.5167 68.8532 24.666 68.8532 24.8549V28.067H67.2599C67.0976 28.067 66.9657 28.1184 66.8641 28.2198C66.7626 28.3213 66.7112 28.4531 66.7112 28.6152C66.7112 28.7773 66.7626 28.9092 66.8641 29.0106C66.9657 29.1121 67.0976 29.1634 67.2599 29.1634H68.8532V35.4652C68.8532 36.1288 68.9653 36.7097 69.1882 37.21C69.4112 37.7104 69.7228 38.1034 70.122 38.3869C70.5212 38.6715 70.9777 38.8126 71.4924 38.8126H71.8986C72.0877 38.8126 72.2372 38.7554 72.3457 38.64C72.4543 38.5257 72.508 38.3799 72.508 38.2037C72.508 38.0148 72.4601 37.8655 72.3656 37.7571C72.271 37.6486 72.1484 37.5949 72.0002 37.5949H71.4924C71.0722 37.5949 70.7314 37.3955 70.4664 36.9966C70.2026 36.5977 70.0707 36.0868 70.0707 35.464V29.1622H72.7624C72.9247 29.1622 73.0566 29.1109 73.1581 29.0095C73.2597 28.908 73.3099 28.7762 73.3099 28.6141C73.3099 28.4519 73.2597 28.3201 73.1581 28.2187L73.1593 28.2198Z" fill="white"/>
<path d="M17.8882 4.12467C17.8882 4.73178 17.396 5.22394 16.7889 5.22394C16.1818 5.22394 15.6897 4.73178 15.6897 4.12467C15.6897 3.51755 16.1818 3.02539 16.7889 3.02539C17.396 3.02539 17.8882 3.51755 17.8882 4.12467Z" fill="#37D5C7"/>
<path d="M3.39776 29.3081C3.39776 29.9152 2.9056 30.4073 2.29848 30.4073C1.69137 30.4073 1.19921 29.9152 1.19921 29.3081C1.19921 28.7009 1.69137 28.2088 2.29848 28.2088C2.9056 28.2088 3.39776 28.7009 3.39776 29.3081Z" fill="#37D5C7"/>
<path d="M31.3793 30.4073C31.9864 30.4073 32.4786 29.9152 32.4786 29.3081C32.4786 28.7009 31.9864 28.2088 31.3793 28.2088C30.7722 28.2088 30.28 28.7009 30.28 29.3081C30.28 29.9152 30.7722 30.4073 31.3793 30.4073Z" fill="#37D5C7"/>
<path d="M13.9908 6.32322C13.9908 7.04071 13.4091 7.62236 12.6916 7.62236C11.9741 7.62236 11.3925 7.04071 11.3925 6.32322C11.3925 5.60572 11.9741 5.02407 12.6916 5.02407C13.4091 5.02407 13.9908 5.60572 13.9908 6.32322Z" fill="#37D5C7"/>
<path d="M16.4891 9.92084C17.2066 9.92084 17.7883 9.3392 17.7883 8.6217C17.7883 7.9042 17.2066 7.32256 16.4891 7.32256C15.7716 7.32256 15.19 7.9042 15.19 8.6217C15.19 9.3392 15.7716 9.92084 16.4891 9.92084Z" fill="#37D5C7"/>
<path d="M17.6883 14.4179C17.6883 15.1354 17.1067 15.717 16.3892 15.717C15.6717 15.717 15.0901 15.1354 15.0901 14.4179C15.0901 13.7004 15.6717 13.1187 16.3892 13.1187C17.1067 13.1187 17.6883 13.7004 17.6883 14.4179Z" fill="#37D5C7"/>
<path d="M16.8389 22.2127C17.5564 22.2127 18.138 21.6311 18.138 20.9136C18.138 20.1961 17.5564 19.6145 16.8389 19.6145C16.1214 19.6145 15.5398 20.1961 15.5398 20.9136C15.5398 21.6311 16.1214 22.2127 16.8389 22.2127Z" fill="#37D5C7"/>
<path d="M7.59499 27.5092C7.59499 28.2267 7.01335 28.8084 6.29585 28.8084C5.57835 28.8084 4.99671 28.2267 4.99671 27.5092C4.99671 26.7918 5.57835 26.2101 6.29585 26.2101C7.01335 26.2101 7.59499 26.7918 7.59499 27.5092Z" fill="#37D5C7"/>
<path d="M2.19855 26.2101C2.91605 26.2101 3.49769 25.6285 3.49769 24.911C3.49769 24.1935 2.91605 23.6118 2.19855 23.6118C1.48105 23.6118 0.899407 24.1935 0.899407 24.911C0.899407 25.6285 1.48105 26.2101 2.19855 26.2101Z" fill="#37D5C7"/>
<path d="M7.59499 31.8064C7.59499 32.5239 7.01335 33.1056 6.29585 33.1056C5.57835 33.1056 4.99671 32.5239 4.99671 31.8064C4.99671 31.0889 5.57835 30.5073 6.29585 30.5073C7.01335 30.5073 7.59499 31.0889 7.59499 31.8064Z" fill="#37D5C7"/>
<path d="M27.6818 28.0089C28.3992 28.0089 28.9809 27.4273 28.9809 26.7098C28.9809 25.9923 28.3992 25.4106 27.6818 25.4106C26.9643 25.4106 26.3826 25.9923 26.3826 26.7098C26.3826 27.4273 26.9643 28.0089 27.6818 28.0089Z" fill="#37D5C7"/>
<path d="M28.781 31.4067C28.781 32.1242 28.1994 32.7058 27.4819 32.7058C26.7644 32.7058 26.1827 32.1242 26.1827 31.4067C26.1827 30.6892 26.7644 30.1075 27.4819 30.1075C28.1994 30.1075 28.781 30.6892 28.781 31.4067Z" fill="#37D5C7"/>
<path d="M31.5792 25.8603C32.2967 25.8603 32.8783 25.2787 32.8783 24.5612C32.8783 23.8437 32.2967 23.262 31.5792 23.262C30.8617 23.262 30.28 23.8437 30.28 24.5612C30.28 25.2787 30.8617 25.8603 31.5792 25.8603Z" fill="#37D5C7"/>
<path d="M23.9842 23.7118C23.9842 24.4292 23.4025 25.0109 22.685 25.0109C21.9675 25.0109 21.3859 24.4292 21.3859 23.7118C21.3859 22.9943 21.9675 22.4126 22.685 22.4126C23.4025 22.4126 23.9842 22.9943 23.9842 23.7118Z" fill="#37D5C7"/>
<path d="M20.4365 13.8183C21.3472 13.8183 22.0854 13.08 22.0854 12.1694C22.0854 11.2587 21.3472 10.5204 20.4365 10.5204C19.5259 10.5204 18.7876 11.2587 18.7876 12.1694C18.7876 13.08 19.5259 13.8183 20.4365 13.8183Z" fill="#37D5C7"/>
<path d="M14.0907 12.1694C14.0907 13.08 13.3525 13.8183 12.4418 13.8183C11.5311 13.8183 10.7929 13.08 10.7929 12.1694C10.7929 11.2587 11.5311 10.5204 12.4418 10.5204C13.3525 10.5204 14.0907 11.2587 14.0907 12.1694Z" fill="#37D5C7"/>
<path d="M7.29519 11.1201C8.39903 11.1201 9.29387 10.2252 9.29387 9.12137C9.29387 8.01753 8.39903 7.12269 7.29519 7.12269C6.19135 7.12269 5.29651 8.01753 5.29651 9.12137C5.29651 10.2252 6.19135 11.1201 7.29519 11.1201Z" fill="#37D5C7"/>
<path d="M4.19723 19.2147C4.19723 20.3186 3.30239 21.2134 2.19855 21.2134C1.09471 21.2134 0.199868 20.3186 0.199868 19.2147C0.199868 18.1109 1.09471 17.216 2.19855 17.216C3.30239 17.216 4.19723 18.1109 4.19723 19.2147Z" fill="#37D5C7"/>
<path d="M28.0815 15.6171C28.0815 15.4552 28.0605 15.2983 28.0235 15.1464L29.7544 13.9692C30.1661 14.4289 30.7637 14.7177 31.4293 14.7177C32.6715 14.7177 33.6778 13.7113 33.6778 12.4692C33.6778 11.227 32.6715 10.2206 31.4293 10.2206C30.8317 10.2206 30.289 10.4545 29.8863 10.8342L27.4549 9.43117C27.4709 9.33023 27.4809 9.2273 27.4809 9.12137C27.4809 8.0171 26.5865 7.12269 25.4822 7.12269C24.3779 7.12269 23.4835 8.0171 23.4835 9.12137C23.4835 10.2256 24.3779 11.1201 25.4822 11.1201C26.0378 11.1201 26.5405 10.8932 26.9023 10.5274L29.2567 11.8865C29.2067 12.0724 29.1798 12.2683 29.1798 12.4692C29.1798 12.6011 29.1918 12.729 29.2137 12.8549L27.3819 14.1011C27.0322 13.8013 26.5785 13.6184 26.0818 13.6184C24.9775 13.6184 24.0831 14.5128 24.0831 15.6171C24.0831 16.7214 24.9775 17.6158 26.0818 17.6158C27.1861 17.6158 28.0805 16.7214 28.0805 15.6171H28.0815Z" fill="#37D5C7"/>
<path d="M33.7777 18.5152C33.7777 19.619 32.8829 20.5139 31.779 20.5139C30.6752 20.5139 29.7804 19.619 29.7804 18.5152C29.7804 17.4113 30.6752 16.5165 31.779 16.5165C32.8829 16.5165 33.7777 17.4113 33.7777 18.5152Z" fill="#37D5C7"/>
<path d="M23.2497 32.5119V29.9786C23.8423 29.7288 24.259 29.1422 24.259 28.4586C24.259 27.5482 23.5205 26.8097 22.6101 26.8097C22.2044 26.8097 21.8326 26.9576 21.5448 27.2004L18.4848 26.0132C18.4598 25.1238 17.7333 24.4103 16.8379 24.4103C16.3342 24.4103 15.8845 24.6361 15.5817 24.9919L12.6467 24.1794C12.5647 23.8686 12.3728 23.6028 12.113 23.4289L12.5597 19.9962C13.3672 19.8893 13.9908 19.1997 13.9908 18.3633C13.9908 17.4529 13.2523 16.7144 12.3419 16.7144C11.9961 16.7144 11.6763 16.8213 11.4115 17.0022L9.47375 15.8839C9.48575 15.796 9.49374 15.707 9.49374 15.6151C9.49374 14.5108 8.59933 13.6164 7.49506 13.6164C6.39079 13.6164 5.49638 14.5108 5.49638 15.6151C5.49638 16.7194 6.39079 17.6138 7.49506 17.6138C8.06468 17.6138 8.57735 17.3739 8.94211 16.9912L10.7289 18.0225C10.7059 18.1324 10.6939 18.2464 10.6939 18.3623C10.6939 18.9069 10.9588 19.3876 11.3655 19.6884L10.8948 23.309C10.4251 23.5049 10.0953 23.9676 10.0953 24.5082C10.0953 25.2258 10.677 25.8074 11.3945 25.8074C11.7802 25.8074 12.126 25.6385 12.3638 25.3707L15.197 26.1541C15.2479 27.0196 15.9635 27.7061 16.8409 27.7061C17.3266 27.7061 17.7613 27.4953 18.0631 27.1605L20.9712 28.2887C20.9662 28.3437 20.9632 28.3987 20.9632 28.4556C20.9632 29.1592 21.4049 29.7588 22.0265 29.9956V32.491C21.209 32.7418 20.6134 33.5023 20.6134 34.4017C20.6134 35.506 21.5078 36.4004 22.6121 36.4004C23.7164 36.4004 24.6108 35.506 24.6108 34.4017C24.6108 33.5223 24.0412 32.7768 23.2517 32.5089L23.2497 32.5119Z" fill="#37D5C7"/>
<path d="M18.8376 31.6065C18.8376 32.7104 17.9427 33.6052 16.8389 33.6052C15.7351 33.6052 14.8402 32.7104 14.8402 31.6065C14.8402 30.5027 15.7351 29.6079 16.8389 29.6079C17.9427 29.6079 18.8376 30.5027 18.8376 31.6065Z" fill="#37D5C7"/>
<path d="M11.2926 37.1029C12.3964 37.1029 13.2912 36.2081 13.2912 35.1042C13.2912 34.0004 12.3964 33.1056 11.2926 33.1056C10.1887 33.1056 9.29387 34.0004 9.29387 35.1042C9.29387 36.2081 10.1887 37.1029 11.2926 37.1029Z" fill="#37D5C7"/>
<path d="M19.0874 37.7525C19.0874 38.9943 18.0807 40.001 16.8389 40.001C15.5971 40.001 14.5904 38.9943 14.5904 37.7525C14.5904 36.5107 15.5971 35.504 16.8389 35.504C18.0807 35.504 19.0874 36.5107 19.0874 37.7525Z" fill="#37D5C7"/>
<path d="M2.24852 14.7177C3.49034 14.7177 4.49704 13.711 4.49704 12.4692C4.49704 11.2273 3.49034 10.2206 2.24852 10.2206C1.0067 10.2206 0 11.2273 0 12.4692C0 13.711 1.0067 14.7177 2.24852 14.7177Z" fill="#37D5C7"/>
<path d="M8.99407 22.2627C8.99407 23.1734 8.25583 23.9116 7.34516 23.9116C6.43449 23.9116 5.69624 23.1734 5.69624 22.2627C5.69624 21.352 6.43449 20.6138 7.34516 20.6138C8.25583 20.6138 8.99407 21.352 8.99407 22.2627Z" fill="#37D5C7"/>
<path d="M11.3425 30.8071C12.2532 30.8071 12.9914 30.0688 12.9914 29.1582C12.9914 28.2475 12.2532 27.5092 11.3425 27.5092C10.4319 27.5092 9.69361 28.2475 9.69361 29.1582C9.69361 30.0688 10.4319 30.8071 11.3425 30.8071Z" fill="#37D5C7"/>
<path d="M28.2814 21.5632C28.2814 22.4738 27.5431 23.2121 26.6324 23.2121C25.7218 23.2121 24.9835 22.4738 24.9835 21.5632C24.9835 20.6525 25.7218 19.9143 26.6324 19.9143C27.5431 19.9143 28.2814 20.6525 28.2814 21.5632Z" fill="#37D5C7"/>
<path d="M21.236 20.0142C22.1467 20.0142 22.8849 19.2759 22.8849 18.3653C22.8849 17.4546 22.1467 16.7164 21.236 16.7164C20.3253 16.7164 19.5871 17.4546 19.5871 18.3653C19.5871 19.2759 20.3253 20.0142 21.236 20.0142Z" fill="#37D5C7"/>
<path d="M21.9855 6.32322C21.9855 7.04071 21.4039 7.62236 20.6864 7.62236C19.9689 7.62236 19.3872 7.04071 19.3872 6.32322C19.3872 5.60572 19.9689 5.02407 20.6864 5.02407C21.4039 5.02407 21.9855 5.60572 21.9855 6.32322Z" fill="#37D5C7"/>
<path fill-rule="evenodd" clip-rule="evenodd" d="M59.7427 19.9299C58.6433 19.2928 57.7711 18.4069 57.1262 17.2815V17.2769C56.4952 16.1454 56.1773 14.8558 56.165 13.4187C56.1527 11.9817 56.4261 10.6767 56.9988 9.54977C57.5853 8.41058 58.3992 7.50783 59.4371 6.84766C60.4813 6.18287 61.6835 5.84971 63.0286 5.83743C64.3553 5.82515 65.5299 6.12607 66.5387 6.75554C67.5568 7.36352 68.3475 8.22021 68.9064 9.31641C69.4638 10.4126 69.7448 11.6547 69.7586 13.0349C69.7617 13.3972 69.6511 13.7258 69.4039 13.9837L69.3962 13.9914L69.3886 13.9991C69.1398 14.2324 68.8251 14.3368 68.4811 14.3399L58.8383 14.4305C58.9381 14.9847 59.1147 15.4898 59.3681 15.9489C59.7919 16.6843 60.3554 17.257 61.0648 17.673C61.768 18.086 62.5818 18.2933 63.5215 18.2841C64.0758 18.2795 64.6317 18.1797 65.1906 17.9832C65.7725 17.7682 66.2132 17.5134 66.528 17.2293L66.5357 17.2216C66.7813 17.0113 67.0716 16.9008 67.3909 16.8946C67.7057 16.8716 68.002 16.953 68.2508 17.1526L68.2723 17.171C68.5456 17.4228 68.7237 17.7375 68.7314 18.109C68.7575 18.4837 68.6039 18.803 68.326 19.044C67.7395 19.5614 67.0025 19.9882 66.1242 20.3322L66.118 20.3352C65.2367 20.6622 64.3783 20.8327 63.5446 20.8403C62.1381 20.8542 60.8698 20.5548 59.7489 19.933L59.7427 19.9299ZM65.2443 8.97404C64.6486 8.58561 63.9238 8.38756 63.0532 8.39524C62.1688 8.40291 61.4118 8.62399 60.7684 9.04466C60.1204 9.46841 59.6153 10.0534 59.2529 10.8118C59.0809 11.1787 58.9519 11.5748 58.8675 12.0001L67.1069 11.9233C67.0224 11.4612 66.8858 11.0329 66.6938 10.6352C66.3514 9.91978 65.8693 9.37015 65.2474 8.97711L65.2428 8.97404H65.2443Z" fill="white"/>
<path d="M75.1944 6.58455H75.1975C76.0588 6.06907 77.0091 5.81441 78.0423 5.81441C78.8361 5.81441 79.4993 5.92793 79.9967 6.19027C80.2546 6.32681 80.4711 6.51552 80.5955 6.77326C80.7229 7.0356 80.7367 7.32095 80.6707 7.60476L80.6676 7.61397C80.5847 7.93154 80.4189 8.21843 80.1226 8.37338C79.8877 8.50378 79.6175 8.54059 79.3381 8.52065H79.335C79.1216 8.50377 78.8744 8.4869 78.592 8.47003H78.5812C77.6969 8.38872 76.9262 8.4869 76.2599 8.75077H76.2553C75.6044 8.99931 75.0931 9.37978 74.7078 9.89218C74.347 10.3939 74.1612 10.9952 74.1612 11.7178V19.3395C74.1612 19.7215 74.0538 20.0713 73.7974 20.3352C73.5395 20.5991 73.1956 20.7064 72.821 20.7064C72.4464 20.7064 72.104 20.5991 71.8461 20.3352C71.5882 20.0713 71.4822 19.7215 71.4822 19.3395V7.33168C71.4822 6.94968 71.5882 6.59989 71.8461 6.33602C72.104 6.07214 72.4479 5.96475 72.821 5.96475C73.194 5.96475 73.5379 6.07214 73.7974 6.33602C74.0553 6.59989 74.1612 6.94968 74.1612 7.33168V7.38077C74.4744 7.07701 74.8198 6.81007 75.1944 6.58301V6.58455Z" fill="white"/>
<path d="M82.935 20.3367L82.9227 20.3229C82.6771 20.0483 82.5727 19.6985 82.5727 19.3149V13.1108C82.5727 12.7288 82.6786 12.379 82.9365 12.1152C83.2037 11.8421 83.5506 11.7178 83.936 11.7178C84.3213 11.7178 84.6361 11.8421 84.8863 12.1152C85.158 12.3744 85.2763 12.7242 85.2763 13.1108V19.3149C85.2763 19.7092 85.155 20.0621 84.8863 20.3352C84.633 20.5944 84.2998 20.7064 83.936 20.7064C83.5721 20.7064 83.219 20.5975 82.9488 20.3474L82.935 20.3352V20.3367Z" fill="white"/>
<path fill-rule="evenodd" clip-rule="evenodd" d="M108.319 19.8626L108.314 19.8596C107.241 19.1953 106.386 18.2963 105.756 17.1671L105.753 17.1625C105.135 16.0272 104.829 14.7524 104.829 13.3486C104.829 11.9449 105.144 10.6424 105.781 9.50556L105.784 9.50095C106.434 8.37182 107.313 7.48047 108.422 6.83459C109.535 6.16724 110.786 5.83739 112.165 5.83739C113.543 5.83739 114.787 6.16724 115.883 6.83459C116.991 7.48047 117.863 8.37182 118.497 9.50249C119.15 10.6378 119.482 11.9218 119.498 13.3425V19.338C119.498 19.7215 119.373 20.0651 119.108 20.3336L119.102 20.3397L119.096 20.3459C118.831 20.5913 118.499 20.7049 118.134 20.7049C117.768 20.7049 117.437 20.5929 117.173 20.3459L117.166 20.3397L117.159 20.3336C116.895 20.0651 116.769 19.7215 116.769 19.338V18.8716C116.368 19.2781 115.914 19.6325 115.409 19.9363H115.406C114.392 20.5376 113.241 20.8322 111.963 20.8322C110.617 20.8322 109.4 20.51 108.319 19.8596V19.8626ZM114.535 17.6228H114.538C115.243 17.1978 115.792 16.621 116.192 15.8846V15.8815C116.608 15.1298 116.816 14.289 116.816 13.3486C116.816 12.4082 116.606 11.5521 116.195 10.8188L116.192 10.8127C115.792 10.0763 115.243 9.49942 114.538 9.07752L114.529 9.07293C113.847 8.6403 113.063 8.41938 112.162 8.41938C111.26 8.41938 110.494 8.6403 109.793 9.07446L109.788 9.07752C109.082 9.50095 108.521 10.0793 108.104 10.8188C107.692 11.5506 107.482 12.3898 107.482 13.3486C107.482 14.3075 107.691 15.1282 108.105 15.88C108.521 16.6194 109.082 17.1963 109.788 17.6197C110.49 18.04 111.277 18.2533 112.162 18.2533C113.046 18.2533 113.852 18.04 114.533 17.6212L114.535 17.6228Z" fill="white"/>
<path d="M47.3466 19.8136C47.4663 20.0805 47.6291 20.306 47.8456 20.4671C48.0682 20.6313 48.323 20.708 48.5993 20.708C48.8757 20.708 49.1505 20.6343 49.3823 20.4732C49.6111 20.3137 49.7815 20.0851 49.9028 19.8136L55.3698 7.7858C55.5172 7.4805 55.5279 7.15526 55.4097 6.83769C55.29 6.50018 55.0597 6.24551 54.7434 6.08442L54.7326 6.07982L54.7219 6.07521C54.3995 5.93407 54.0618 5.92334 53.7286 6.03533C53.3832 6.13812 53.1314 6.37591 52.9871 6.71343L48.604 16.532L44.1517 6.69655L44.1456 6.68581C43.9875 6.38665 43.7511 6.16574 43.4425 6.04454C43.1124 5.91567 42.7746 5.94789 42.4584 6.10897C42.1375 6.26239 41.8903 6.50171 41.7644 6.83462C41.6416 7.15986 41.657 7.49124 41.7997 7.80728L47.3451 19.8151L47.3466 19.8136Z" fill="white"/>
<path fill-rule="evenodd" clip-rule="evenodd" d="M88.8718 17.1718C89.5228 18.3009 90.4024 19.1999 91.5078 19.8627L91.5124 19.8658C92.6255 20.5147 93.8752 20.8353 95.2523 20.8353C96.6294 20.8353 97.8469 20.5147 98.943 19.8642C100.051 19.2183 100.923 18.3362 101.559 17.2209C102.21 16.0887 102.551 14.823 102.586 13.4361V1.39301C102.586 1.00334 102.466 0.652013 102.19 0.391207C101.928 0.127333 101.594 0 101.221 0C100.848 0 100.515 0.125799 100.253 0.391207C99.9762 0.652013 99.8565 1.00334 99.8565 1.39301V7.80117C99.3975 7.33785 98.8632 6.94511 98.2553 6.62294C97.2957 6.09672 96.2241 5.83745 95.0512 5.83745C93.7032 5.83745 92.4842 6.16883 91.4034 6.83772C90.3288 7.48514 89.4736 8.37648 88.8411 9.50562L88.8381 9.51022C88.2193 10.6455 87.9154 11.9204 87.9154 13.3241C87.9154 14.7279 88.2301 16.0304 88.8657 17.1672L88.8687 17.1718H88.8718ZM99.2854 10.8204C99.6999 11.5537 99.9087 12.3852 99.9087 13.3241C99.9087 14.263 99.6984 15.1206 99.2854 15.8539L99.2823 15.8601C98.8832 16.598 98.332 17.1841 97.6227 17.6244C96.9411 18.0416 96.155 18.2549 95.2523 18.2549C94.3496 18.2549 93.5804 18.0432 92.8804 17.6228C92.1711 17.1825 91.6107 16.5949 91.1946 15.8539C90.7832 15.1221 90.5729 14.283 90.5729 13.3241C90.5729 12.3653 90.7832 11.5537 91.1946 10.8204L91.1977 10.8173C91.6138 10.061 92.1741 9.47493 92.8773 9.05304C93.5804 8.63268 94.368 8.41943 95.2523 8.41943C96.1366 8.41943 96.9411 8.63268 97.6242 9.0515H97.6273C98.3305 9.47493 98.8801 10.0579 99.2808 10.8112L99.2839 10.8204H99.2854Z" fill="white"/>
<path d="M82.935 10.1821L82.9227 10.1683C82.6771 9.89373 82.5727 9.54394 82.5727 9.16041V7.64313C82.5727 7.26112 82.6786 6.91134 82.9365 6.64746C83.2037 6.37438 83.5506 6.25011 83.936 6.25011C84.3213 6.25011 84.6361 6.37438 84.8863 6.64746C85.158 6.90673 85.2763 7.25652 85.2763 7.64313V9.16041C85.2763 9.55468 85.155 9.90753 84.8863 10.1806C84.633 10.4399 84.2998 10.5519 83.936 10.5519C83.5721 10.5519 83.219 10.443 82.9488 10.1929L82.935 10.1806V10.1821Z" fill="#37D5C7"/>
</svg>
